%TF.GenerationSoftware,KiCad,Pcbnew,(6.0.6)*%
%TF.CreationDate,2023-05-03T19:44:46+02:00*%
%TF.ProjectId,Portal Turret,506f7274-616c-4205-9475-727265742e6b,rev?*%
%TF.SameCoordinates,Original*%
%TF.FileFunction,Soldermask,Top*%
%TF.FilePolarity,Negative*%
%FSLAX46Y46*%
G04 Gerber Fmt 4.6, Leading zero omitted, Abs format (unit mm)*
G04 Created by KiCad (PCBNEW (6.0.6)) date 2023-05-03 19:44:46*
%MOMM*%
%LPD*%
G01*
G04 APERTURE LIST*
%ADD10R,1.700000X1.700000*%
%ADD11O,1.700000X1.700000*%
%ADD12O,1.200000X2.000000*%
%ADD13C,2.200000*%
%ADD14C,1.600000*%
%ADD15O,1.600000X1.600000*%
%ADD16O,2.000000X1.200000*%
%ADD17R,1.600000X1.600000*%
%ADD18R,1.500000X1.050000*%
%ADD19O,1.500000X1.050000*%
G04 APERTURE END LIST*
D10*
%TO.C,J4*%
X128905000Y-71755000D03*
D11*
X131445000Y-71755000D03*
X133985000Y-71755000D03*
%TD*%
D10*
%TO.C,J13*%
X99060000Y-96520000D03*
D11*
X101600000Y-96520000D03*
%TD*%
D10*
%TO.C,J2*%
X132080000Y-96520000D03*
D11*
X134620000Y-96520000D03*
%TD*%
D12*
%TO.C,U4*%
X125730000Y-72390000D03*
X123190000Y-72390000D03*
X120650000Y-72390000D03*
X118110000Y-72390000D03*
X115570000Y-72390000D03*
X113030000Y-72390000D03*
X110490000Y-72390000D03*
X107950000Y-72390000D03*
X107950000Y-95250000D03*
X110490000Y-95250000D03*
X113030000Y-95250000D03*
X115570000Y-95250000D03*
X118110000Y-95250000D03*
X120650000Y-95250000D03*
X123190000Y-95250000D03*
X125730000Y-95250000D03*
%TD*%
D10*
%TO.C,J10*%
X96520000Y-96520000D03*
%TD*%
%TO.C,J3*%
X104140000Y-71755000D03*
%TD*%
D13*
%TO.C,REF\u002A\u002A*%
X86360000Y-95885000D03*
%TD*%
D10*
%TO.C,J5*%
X136540000Y-71755000D03*
D11*
X139080000Y-71755000D03*
X141620000Y-71755000D03*
%TD*%
D14*
%TO.C,R1*%
X116840000Y-75565000D03*
D15*
X124460000Y-75565000D03*
%TD*%
D10*
%TO.C,J1*%
X92080000Y-96520000D03*
D11*
X89540000Y-96520000D03*
%TD*%
D16*
%TO.C,U3*%
X142240000Y-92710000D03*
X142240000Y-90170000D03*
X142240000Y-87630000D03*
X142240000Y-85090000D03*
X142240000Y-82550000D03*
X142240000Y-80010000D03*
X142240000Y-77470000D03*
X142240000Y-74930000D03*
%TD*%
D14*
%TO.C,R2*%
X124460000Y-78105000D03*
D15*
X116840000Y-78105000D03*
%TD*%
D10*
%TO.C,J12*%
X99055000Y-71755000D03*
D11*
X101595000Y-71755000D03*
%TD*%
D17*
%TO.C,U1*%
X124460000Y-84465000D03*
D15*
X121920000Y-84465000D03*
X119380000Y-84465000D03*
X116840000Y-84465000D03*
X114300000Y-84465000D03*
X111760000Y-84465000D03*
X109220000Y-84465000D03*
X109220000Y-92085000D03*
X111760000Y-92085000D03*
X114300000Y-92085000D03*
X116840000Y-92085000D03*
X119380000Y-92085000D03*
X121920000Y-92085000D03*
X124460000Y-92085000D03*
%TD*%
D13*
%TO.C,REF\u002A\u002A*%
X140970000Y-95885000D03*
%TD*%
D14*
%TO.C,R3*%
X116840000Y-80645000D03*
D15*
X124460000Y-80645000D03*
%TD*%
D16*
%TO.C,U2*%
X85725000Y-74295000D03*
X85725000Y-76835000D03*
X85725000Y-79375000D03*
X85725000Y-81915000D03*
X85725000Y-84455000D03*
X85725000Y-86995000D03*
X85725000Y-89535000D03*
X85725000Y-92075000D03*
X103505000Y-74295000D03*
X103505000Y-76835000D03*
X103505000Y-79375000D03*
X103505000Y-81915000D03*
X103505000Y-84455000D03*
X103505000Y-86995000D03*
X103505000Y-89535000D03*
X103505000Y-92075000D03*
%TD*%
D10*
%TO.C,J7*%
X104140000Y-96520000D03*
%TD*%
%TO.C,J6*%
X85720000Y-71755000D03*
D11*
X88260000Y-71755000D03*
%TD*%
D18*
%TO.C,Q1*%
X110490000Y-81280000D03*
D19*
X110490000Y-80010000D03*
X110490000Y-78740000D03*
%TD*%
M02*
