M48
; DRILL file {KiCad (6.0.6)} date Wed May  3 19:44:48 2023
; FORMAT={-:-/ absolute / inch / decimal}
; #@! TF.CreationDate,2023-05-03T19:44:48+02:00
; #@! TF.GenerationSoftware,Kicad,Pcbnew,(6.0.6)
; #@! TF.FileFunction,Plated,1,2,PTH
FMAT,2
INCH
; #@! TA.AperFunction,Plated,PTH,ViaDrill
T1C0.0157
; #@! TA.AperFunction,Plated,PTH,ComponentDrill
T2C0.0295
; #@! TA.AperFunction,Plated,PTH,ComponentDrill
T3C0.0315
; #@! TA.AperFunction,Plated,PTH,ComponentDrill
T4C0.0394
%
G90
G05
T1
X4.0Y-3.275
X5.25Y-3.075
X5.3Y-3.075
T2
X4.35Y-3.1
X4.35Y-3.15
X4.35Y-3.2
T3
X3.375Y-2.925
X3.375Y-3.025
X3.375Y-3.125
X3.375Y-3.225
X3.375Y-3.325
X3.375Y-3.425
X3.375Y-3.525
X3.375Y-3.625
X4.075Y-2.925
X4.075Y-3.025
X4.075Y-3.125
X4.075Y-3.225
X4.075Y-3.325
X4.075Y-3.425
X4.075Y-3.525
X4.075Y-3.625
X4.25Y-2.85
X4.25Y-3.75
X4.3Y-3.3254
X4.3Y-3.6254
X4.35Y-2.85
X4.35Y-3.75
X4.4Y-3.3254
X4.4Y-3.6254
X4.45Y-2.85
X4.45Y-3.75
X4.5Y-3.3254
X4.5Y-3.6254
X4.55Y-2.85
X4.55Y-3.75
X4.6Y-2.975
X4.6Y-3.075
X4.6Y-3.175
X4.6Y-3.3254
X4.6Y-3.6254
X4.65Y-2.85
X4.65Y-3.75
X4.7Y-3.3254
X4.7Y-3.6254
X4.75Y-2.85
X4.75Y-3.75
X4.8Y-3.3254
X4.8Y-3.6254
X4.85Y-2.85
X4.85Y-3.75
X4.9Y-2.975
X4.9Y-3.075
X4.9Y-3.175
X4.9Y-3.3254
X4.9Y-3.6254
X4.95Y-2.85
X4.95Y-3.75
X5.6Y-2.95
X5.6Y-3.05
X5.6Y-3.15
X5.6Y-3.25
X5.6Y-3.35
X5.6Y-3.45
X5.6Y-3.55
X5.6Y-3.65
T4
X3.3748Y-2.825
X3.4748Y-2.825
X3.5252Y-3.8
X3.6252Y-3.8
X3.8Y-3.8
X3.8998Y-2.825
X3.9Y-3.8
X3.9998Y-2.825
X4.0Y-3.8
X4.1Y-2.825
X4.1Y-3.8
X5.075Y-2.825
X5.175Y-2.825
X5.2Y-3.8
X5.275Y-2.825
X5.3Y-3.8
X5.3756Y-2.825
X5.4756Y-2.825
X5.5756Y-2.825
T0
M30
