%TF.GenerationSoftware,KiCad,Pcbnew,(6.0.6)*%
%TF.CreationDate,2023-05-03T19:44:46+02:00*%
%TF.ProjectId,Portal Turret,506f7274-616c-4205-9475-727265742e6b,rev?*%
%TF.SameCoordinates,Original*%
%TF.FileFunction,Legend,Top*%
%TF.FilePolarity,Positive*%
%FSLAX46Y46*%
G04 Gerber Fmt 4.6, Leading zero omitted, Abs format (unit mm)*
G04 Created by KiCad (PCBNEW (6.0.6)) date 2023-05-03 19:44:46*
%MOMM*%
%LPD*%
G01*
G04 APERTURE LIST*
%ADD10C,0.150000*%
%ADD11C,0.120000*%
G04 APERTURE END LIST*
D10*
%TO.C,J4*%
X128571666Y-73747380D02*
X128571666Y-74461666D01*
X128524047Y-74604523D01*
X128428809Y-74699761D01*
X128285952Y-74747380D01*
X128190714Y-74747380D01*
X129476428Y-74080714D02*
X129476428Y-74747380D01*
X129238333Y-73699761D02*
X129000238Y-74414047D01*
X129619285Y-74414047D01*
%TO.C,J13*%
X99520476Y-93432380D02*
X99520476Y-94146666D01*
X99472857Y-94289523D01*
X99377619Y-94384761D01*
X99234761Y-94432380D01*
X99139523Y-94432380D01*
X100520476Y-94432380D02*
X99949047Y-94432380D01*
X100234761Y-94432380D02*
X100234761Y-93432380D01*
X100139523Y-93575238D01*
X100044285Y-93670476D01*
X99949047Y-93718095D01*
X100853809Y-93432380D02*
X101472857Y-93432380D01*
X101139523Y-93813333D01*
X101282380Y-93813333D01*
X101377619Y-93860952D01*
X101425238Y-93908571D01*
X101472857Y-94003809D01*
X101472857Y-94241904D01*
X101425238Y-94337142D01*
X101377619Y-94384761D01*
X101282380Y-94432380D01*
X100996666Y-94432380D01*
X100901428Y-94384761D01*
X100853809Y-94337142D01*
%TO.C,J2*%
X128992380Y-96853333D02*
X129706666Y-96853333D01*
X129849523Y-96900952D01*
X129944761Y-96996190D01*
X129992380Y-97139047D01*
X129992380Y-97234285D01*
X129087619Y-96424761D02*
X129040000Y-96377142D01*
X128992380Y-96281904D01*
X128992380Y-96043809D01*
X129040000Y-95948571D01*
X129087619Y-95900952D01*
X129182857Y-95853333D01*
X129278095Y-95853333D01*
X129420952Y-95900952D01*
X129992380Y-96472380D01*
X129992380Y-95853333D01*
%TO.C,U4*%
X113117380Y-82676904D02*
X113926904Y-82676904D01*
X114022142Y-82629285D01*
X114069761Y-82581666D01*
X114117380Y-82486428D01*
X114117380Y-82295952D01*
X114069761Y-82200714D01*
X114022142Y-82153095D01*
X113926904Y-82105476D01*
X113117380Y-82105476D01*
X113450714Y-81200714D02*
X114117380Y-81200714D01*
X113069761Y-81438809D02*
X113784047Y-81676904D01*
X113784047Y-81057857D01*
X110037619Y-74567023D02*
X110513809Y-74233690D01*
X110037619Y-73995595D02*
X111037619Y-73995595D01*
X111037619Y-74376547D01*
X110990000Y-74471785D01*
X110942380Y-74519404D01*
X110847142Y-74567023D01*
X110704285Y-74567023D01*
X110609047Y-74519404D01*
X110561428Y-74471785D01*
X110513809Y-74376547D01*
X110513809Y-73995595D01*
X111037619Y-74900357D02*
X110037619Y-75567023D01*
X111037619Y-75567023D02*
X110037619Y-74900357D01*
X120197619Y-92168214D02*
X121197619Y-92168214D01*
X121197619Y-92406309D01*
X121150000Y-92549166D01*
X121054761Y-92644404D01*
X120959523Y-92692023D01*
X120769047Y-92739642D01*
X120626190Y-92739642D01*
X120435714Y-92692023D01*
X120340476Y-92644404D01*
X120245238Y-92549166D01*
X120197619Y-92406309D01*
X120197619Y-92168214D01*
X121197619Y-93072976D02*
X121197619Y-93739642D01*
X120197619Y-93311071D01*
X115117619Y-73995595D02*
X116117619Y-73995595D01*
X116117619Y-74233690D01*
X116070000Y-74376547D01*
X115974761Y-74471785D01*
X115879523Y-74519404D01*
X115689047Y-74567023D01*
X115546190Y-74567023D01*
X115355714Y-74519404D01*
X115260476Y-74471785D01*
X115165238Y-74376547D01*
X115117619Y-74233690D01*
X115117619Y-73995595D01*
X116022380Y-74947976D02*
X116070000Y-74995595D01*
X116117619Y-75090833D01*
X116117619Y-75328928D01*
X116070000Y-75424166D01*
X116022380Y-75471785D01*
X115927142Y-75519404D01*
X115831904Y-75519404D01*
X115689047Y-75471785D01*
X115117619Y-74900357D01*
X115117619Y-75519404D01*
X112577619Y-92168214D02*
X113577619Y-92168214D01*
X113577619Y-92406309D01*
X113530000Y-92549166D01*
X113434761Y-92644404D01*
X113339523Y-92692023D01*
X113149047Y-92739642D01*
X113006190Y-92739642D01*
X112815714Y-92692023D01*
X112720476Y-92644404D01*
X112625238Y-92549166D01*
X112577619Y-92406309D01*
X112577619Y-92168214D01*
X113577619Y-93358690D02*
X113577619Y-93453928D01*
X113530000Y-93549166D01*
X113482380Y-93596785D01*
X113387142Y-93644404D01*
X113196666Y-93692023D01*
X112958571Y-93692023D01*
X112768095Y-93644404D01*
X112672857Y-93596785D01*
X112625238Y-93549166D01*
X112577619Y-93453928D01*
X112577619Y-93358690D01*
X112625238Y-93263452D01*
X112672857Y-93215833D01*
X112768095Y-93168214D01*
X112958571Y-93120595D01*
X113196666Y-93120595D01*
X113387142Y-93168214D01*
X113482380Y-93215833D01*
X113530000Y-93263452D01*
X113577619Y-93358690D01*
X107497619Y-91977738D02*
X107973809Y-91644404D01*
X107497619Y-91406309D02*
X108497619Y-91406309D01*
X108497619Y-91787261D01*
X108450000Y-91882500D01*
X108402380Y-91930119D01*
X108307142Y-91977738D01*
X108164285Y-91977738D01*
X108069047Y-91930119D01*
X108021428Y-91882500D01*
X107973809Y-91787261D01*
X107973809Y-91406309D01*
X107545238Y-92358690D02*
X107497619Y-92501547D01*
X107497619Y-92739642D01*
X107545238Y-92834880D01*
X107592857Y-92882500D01*
X107688095Y-92930119D01*
X107783333Y-92930119D01*
X107878571Y-92882500D01*
X107926190Y-92834880D01*
X107973809Y-92739642D01*
X108021428Y-92549166D01*
X108069047Y-92453928D01*
X108116666Y-92406309D01*
X108211904Y-92358690D01*
X108307142Y-92358690D01*
X108402380Y-92406309D01*
X108450000Y-92453928D01*
X108497619Y-92549166D01*
X108497619Y-92787261D01*
X108450000Y-92930119D01*
X108497619Y-93215833D02*
X108497619Y-93787261D01*
X107497619Y-93501547D02*
X108497619Y-93501547D01*
X123690000Y-74519404D02*
X123737619Y-74424166D01*
X123737619Y-74281309D01*
X123690000Y-74138452D01*
X123594761Y-74043214D01*
X123499523Y-73995595D01*
X123309047Y-73947976D01*
X123166190Y-73947976D01*
X122975714Y-73995595D01*
X122880476Y-74043214D01*
X122785238Y-74138452D01*
X122737619Y-74281309D01*
X122737619Y-74376547D01*
X122785238Y-74519404D01*
X122832857Y-74567023D01*
X123166190Y-74567023D01*
X123166190Y-74376547D01*
X122737619Y-74995595D02*
X123737619Y-74995595D01*
X122737619Y-75567023D01*
X123737619Y-75567023D01*
X122737619Y-76043214D02*
X123737619Y-76043214D01*
X123737619Y-76281309D01*
X123690000Y-76424166D01*
X123594761Y-76519404D01*
X123499523Y-76567023D01*
X123309047Y-76614642D01*
X123166190Y-76614642D01*
X122975714Y-76567023D01*
X122880476Y-76519404D01*
X122785238Y-76424166D01*
X122737619Y-76281309D01*
X122737619Y-76043214D01*
X112577619Y-73995595D02*
X113577619Y-73995595D01*
X113577619Y-74233690D01*
X113530000Y-74376547D01*
X113434761Y-74471785D01*
X113339523Y-74519404D01*
X113149047Y-74567023D01*
X113006190Y-74567023D01*
X112815714Y-74519404D01*
X112720476Y-74471785D01*
X112625238Y-74376547D01*
X112577619Y-74233690D01*
X112577619Y-73995595D01*
X112577619Y-75519404D02*
X112577619Y-74947976D01*
X112577619Y-75233690D02*
X113577619Y-75233690D01*
X113434761Y-75138452D01*
X113339523Y-75043214D01*
X113291904Y-74947976D01*
X110323333Y-92263452D02*
X110323333Y-92739642D01*
X110037619Y-92168214D02*
X111037619Y-92501547D01*
X110037619Y-92834880D01*
X111037619Y-93358690D02*
X111037619Y-93453928D01*
X110990000Y-93549166D01*
X110942380Y-93596785D01*
X110847142Y-93644404D01*
X110656666Y-93692023D01*
X110418571Y-93692023D01*
X110228095Y-93644404D01*
X110132857Y-93596785D01*
X110085238Y-93549166D01*
X110037619Y-93453928D01*
X110037619Y-93358690D01*
X110085238Y-93263452D01*
X110132857Y-93215833D01*
X110228095Y-93168214D01*
X110418571Y-93120595D01*
X110656666Y-93120595D01*
X110847142Y-93168214D01*
X110942380Y-93215833D01*
X110990000Y-93263452D01*
X111037619Y-93358690D01*
X125642619Y-91263452D02*
X125642619Y-91882500D01*
X125261666Y-91549166D01*
X125261666Y-91692023D01*
X125214047Y-91787261D01*
X125166428Y-91834880D01*
X125071190Y-91882500D01*
X124833095Y-91882500D01*
X124737857Y-91834880D01*
X124690238Y-91787261D01*
X124642619Y-91692023D01*
X124642619Y-91406309D01*
X124690238Y-91311071D01*
X124737857Y-91263452D01*
X125642619Y-92168214D02*
X124642619Y-92501547D01*
X125642619Y-92834880D01*
X125642619Y-93072976D02*
X125642619Y-93692023D01*
X125261666Y-93358690D01*
X125261666Y-93501547D01*
X125214047Y-93596785D01*
X125166428Y-93644404D01*
X125071190Y-93692023D01*
X124833095Y-93692023D01*
X124737857Y-93644404D01*
X124690238Y-93596785D01*
X124642619Y-93501547D01*
X124642619Y-93215833D01*
X124690238Y-93120595D01*
X124737857Y-93072976D01*
X117657619Y-92168214D02*
X118657619Y-92168214D01*
X118657619Y-92406309D01*
X118610000Y-92549166D01*
X118514761Y-92644404D01*
X118419523Y-92692023D01*
X118229047Y-92739642D01*
X118086190Y-92739642D01*
X117895714Y-92692023D01*
X117800476Y-92644404D01*
X117705238Y-92549166D01*
X117657619Y-92406309D01*
X117657619Y-92168214D01*
X118657619Y-93596785D02*
X118657619Y-93406309D01*
X118610000Y-93311071D01*
X118562380Y-93263452D01*
X118419523Y-93168214D01*
X118229047Y-93120595D01*
X117848095Y-93120595D01*
X117752857Y-93168214D01*
X117705238Y-93215833D01*
X117657619Y-93311071D01*
X117657619Y-93501547D01*
X117705238Y-93596785D01*
X117752857Y-93644404D01*
X117848095Y-93692023D01*
X118086190Y-93692023D01*
X118181428Y-93644404D01*
X118229047Y-93596785D01*
X118276666Y-93501547D01*
X118276666Y-93311071D01*
X118229047Y-93215833D01*
X118181428Y-93168214D01*
X118086190Y-93120595D01*
X108497619Y-73852738D02*
X108497619Y-74424166D01*
X107497619Y-74138452D02*
X108497619Y-74138452D01*
X108497619Y-74662261D02*
X107497619Y-75328928D01*
X108497619Y-75328928D02*
X107497619Y-74662261D01*
X115117619Y-92168214D02*
X116117619Y-92168214D01*
X116117619Y-92406309D01*
X116070000Y-92549166D01*
X115974761Y-92644404D01*
X115879523Y-92692023D01*
X115689047Y-92739642D01*
X115546190Y-92739642D01*
X115355714Y-92692023D01*
X115260476Y-92644404D01*
X115165238Y-92549166D01*
X115117619Y-92406309D01*
X115117619Y-92168214D01*
X116117619Y-93644404D02*
X116117619Y-93168214D01*
X115641428Y-93120595D01*
X115689047Y-93168214D01*
X115736666Y-93263452D01*
X115736666Y-93501547D01*
X115689047Y-93596785D01*
X115641428Y-93644404D01*
X115546190Y-93692023D01*
X115308095Y-93692023D01*
X115212857Y-93644404D01*
X115165238Y-93596785D01*
X115117619Y-93501547D01*
X115117619Y-93263452D01*
X115165238Y-93168214D01*
X115212857Y-93120595D01*
X117657619Y-73995595D02*
X118657619Y-73995595D01*
X118657619Y-74233690D01*
X118610000Y-74376547D01*
X118514761Y-74471785D01*
X118419523Y-74519404D01*
X118229047Y-74567023D01*
X118086190Y-74567023D01*
X117895714Y-74519404D01*
X117800476Y-74471785D01*
X117705238Y-74376547D01*
X117657619Y-74233690D01*
X117657619Y-73995595D01*
X118657619Y-74900357D02*
X118657619Y-75519404D01*
X118276666Y-75186071D01*
X118276666Y-75328928D01*
X118229047Y-75424166D01*
X118181428Y-75471785D01*
X118086190Y-75519404D01*
X117848095Y-75519404D01*
X117752857Y-75471785D01*
X117705238Y-75424166D01*
X117657619Y-75328928D01*
X117657619Y-75043214D01*
X117705238Y-74947976D01*
X117752857Y-74900357D01*
X122737619Y-92168214D02*
X123737619Y-92168214D01*
X123737619Y-92406309D01*
X123690000Y-92549166D01*
X123594761Y-92644404D01*
X123499523Y-92692023D01*
X123309047Y-92739642D01*
X123166190Y-92739642D01*
X122975714Y-92692023D01*
X122880476Y-92644404D01*
X122785238Y-92549166D01*
X122737619Y-92406309D01*
X122737619Y-92168214D01*
X123309047Y-93311071D02*
X123356666Y-93215833D01*
X123404285Y-93168214D01*
X123499523Y-93120595D01*
X123547142Y-93120595D01*
X123642380Y-93168214D01*
X123690000Y-93215833D01*
X123737619Y-93311071D01*
X123737619Y-93501547D01*
X123690000Y-93596785D01*
X123642380Y-93644404D01*
X123547142Y-93692023D01*
X123499523Y-93692023D01*
X123404285Y-93644404D01*
X123356666Y-93596785D01*
X123309047Y-93501547D01*
X123309047Y-93311071D01*
X123261428Y-93215833D01*
X123213809Y-93168214D01*
X123118571Y-93120595D01*
X122928095Y-93120595D01*
X122832857Y-93168214D01*
X122785238Y-93215833D01*
X122737619Y-93311071D01*
X122737619Y-93501547D01*
X122785238Y-93596785D01*
X122832857Y-93644404D01*
X122928095Y-93692023D01*
X123118571Y-93692023D01*
X123213809Y-93644404D01*
X123261428Y-93596785D01*
X123309047Y-93501547D01*
X120197619Y-73995595D02*
X121197619Y-73995595D01*
X121197619Y-74233690D01*
X121150000Y-74376547D01*
X121054761Y-74471785D01*
X120959523Y-74519404D01*
X120769047Y-74567023D01*
X120626190Y-74567023D01*
X120435714Y-74519404D01*
X120340476Y-74471785D01*
X120245238Y-74376547D01*
X120197619Y-74233690D01*
X120197619Y-73995595D01*
X120864285Y-75424166D02*
X120197619Y-75424166D01*
X121245238Y-75186071D02*
X120530952Y-74947976D01*
X120530952Y-75567023D01*
X125642619Y-74471785D02*
X125642619Y-73995595D01*
X125166428Y-73947976D01*
X125214047Y-73995595D01*
X125261666Y-74090833D01*
X125261666Y-74328928D01*
X125214047Y-74424166D01*
X125166428Y-74471785D01*
X125071190Y-74519404D01*
X124833095Y-74519404D01*
X124737857Y-74471785D01*
X124690238Y-74424166D01*
X124642619Y-74328928D01*
X124642619Y-74090833D01*
X124690238Y-73995595D01*
X124737857Y-73947976D01*
X125642619Y-74805119D02*
X124642619Y-75138452D01*
X125642619Y-75471785D01*
%TO.C,J10*%
X95710476Y-93432380D02*
X95710476Y-94146666D01*
X95662857Y-94289523D01*
X95567619Y-94384761D01*
X95424761Y-94432380D01*
X95329523Y-94432380D01*
X96710476Y-94432380D02*
X96139047Y-94432380D01*
X96424761Y-94432380D02*
X96424761Y-93432380D01*
X96329523Y-93575238D01*
X96234285Y-93670476D01*
X96139047Y-93718095D01*
X97329523Y-93432380D02*
X97424761Y-93432380D01*
X97520000Y-93480000D01*
X97567619Y-93527619D01*
X97615238Y-93622857D01*
X97662857Y-93813333D01*
X97662857Y-94051428D01*
X97615238Y-94241904D01*
X97567619Y-94337142D01*
X97520000Y-94384761D01*
X97424761Y-94432380D01*
X97329523Y-94432380D01*
X97234285Y-94384761D01*
X97186666Y-94337142D01*
X97139047Y-94241904D01*
X97091428Y-94051428D01*
X97091428Y-93813333D01*
X97139047Y-93622857D01*
X97186666Y-93527619D01*
X97234285Y-93480000D01*
X97329523Y-93432380D01*
%TO.C,J3*%
X103806666Y-73747380D02*
X103806666Y-74461666D01*
X103759047Y-74604523D01*
X103663809Y-74699761D01*
X103520952Y-74747380D01*
X103425714Y-74747380D01*
X104187619Y-73747380D02*
X104806666Y-73747380D01*
X104473333Y-74128333D01*
X104616190Y-74128333D01*
X104711428Y-74175952D01*
X104759047Y-74223571D01*
X104806666Y-74318809D01*
X104806666Y-74556904D01*
X104759047Y-74652142D01*
X104711428Y-74699761D01*
X104616190Y-74747380D01*
X104330476Y-74747380D01*
X104235238Y-74699761D01*
X104187619Y-74652142D01*
%TO.C,REF\u002A\u002A*%
X85026666Y-100147380D02*
X84693333Y-99671190D01*
X84455238Y-100147380D02*
X84455238Y-99147380D01*
X84836190Y-99147380D01*
X84931428Y-99195000D01*
X84979047Y-99242619D01*
X85026666Y-99337857D01*
X85026666Y-99480714D01*
X84979047Y-99575952D01*
X84931428Y-99623571D01*
X84836190Y-99671190D01*
X84455238Y-99671190D01*
X85455238Y-99623571D02*
X85788571Y-99623571D01*
X85931428Y-100147380D02*
X85455238Y-100147380D01*
X85455238Y-99147380D01*
X85931428Y-99147380D01*
X86693333Y-99623571D02*
X86360000Y-99623571D01*
X86360000Y-100147380D02*
X86360000Y-99147380D01*
X86836190Y-99147380D01*
X87360000Y-99147380D02*
X87360000Y-99385476D01*
X87121904Y-99290238D02*
X87360000Y-99385476D01*
X87598095Y-99290238D01*
X87217142Y-99575952D02*
X87360000Y-99385476D01*
X87502857Y-99575952D01*
X88121904Y-99147380D02*
X88121904Y-99385476D01*
X87883809Y-99290238D02*
X88121904Y-99385476D01*
X88360000Y-99290238D01*
X87979047Y-99575952D02*
X88121904Y-99385476D01*
X88264761Y-99575952D01*
%TO.C,J5*%
X136191666Y-73747380D02*
X136191666Y-74461666D01*
X136144047Y-74604523D01*
X136048809Y-74699761D01*
X135905952Y-74747380D01*
X135810714Y-74747380D01*
X137144047Y-73747380D02*
X136667857Y-73747380D01*
X136620238Y-74223571D01*
X136667857Y-74175952D01*
X136763095Y-74128333D01*
X137001190Y-74128333D01*
X137096428Y-74175952D01*
X137144047Y-74223571D01*
X137191666Y-74318809D01*
X137191666Y-74556904D01*
X137144047Y-74652142D01*
X137096428Y-74699761D01*
X137001190Y-74747380D01*
X136763095Y-74747380D01*
X136667857Y-74699761D01*
X136620238Y-74652142D01*
%TO.C,R1*%
X120483333Y-76017380D02*
X120150000Y-75541190D01*
X119911904Y-76017380D02*
X119911904Y-75017380D01*
X120292857Y-75017380D01*
X120388095Y-75065000D01*
X120435714Y-75112619D01*
X120483333Y-75207857D01*
X120483333Y-75350714D01*
X120435714Y-75445952D01*
X120388095Y-75493571D01*
X120292857Y-75541190D01*
X119911904Y-75541190D01*
X121435714Y-76017380D02*
X120864285Y-76017380D01*
X121150000Y-76017380D02*
X121150000Y-75017380D01*
X121054761Y-75160238D01*
X120959523Y-75255476D01*
X120864285Y-75303095D01*
%TO.C,J1*%
X90471666Y-93432380D02*
X90471666Y-94146666D01*
X90424047Y-94289523D01*
X90328809Y-94384761D01*
X90185952Y-94432380D01*
X90090714Y-94432380D01*
X91471666Y-94432380D02*
X90900238Y-94432380D01*
X91185952Y-94432380D02*
X91185952Y-93432380D01*
X91090714Y-93575238D01*
X90995476Y-93670476D01*
X90900238Y-93718095D01*
%TO.C,U3*%
X133708095Y-83272380D02*
X133708095Y-84081904D01*
X133755714Y-84177142D01*
X133803333Y-84224761D01*
X133898571Y-84272380D01*
X134089047Y-84272380D01*
X134184285Y-84224761D01*
X134231904Y-84177142D01*
X134279523Y-84081904D01*
X134279523Y-83272380D01*
X134660476Y-83272380D02*
X135279523Y-83272380D01*
X134946190Y-83653333D01*
X135089047Y-83653333D01*
X135184285Y-83700952D01*
X135231904Y-83748571D01*
X135279523Y-83843809D01*
X135279523Y-84081904D01*
X135231904Y-84177142D01*
X135184285Y-84224761D01*
X135089047Y-84272380D01*
X134803333Y-84272380D01*
X134708095Y-84224761D01*
X134660476Y-84177142D01*
X140349523Y-79605238D02*
X140206666Y-79557619D01*
X139968571Y-79557619D01*
X139873333Y-79605238D01*
X139825714Y-79652857D01*
X139778095Y-79748095D01*
X139778095Y-79843333D01*
X139825714Y-79938571D01*
X139873333Y-79986190D01*
X139968571Y-80033809D01*
X140159047Y-80081428D01*
X140254285Y-80129047D01*
X140301904Y-80176666D01*
X140349523Y-80271904D01*
X140349523Y-80367142D01*
X140301904Y-80462380D01*
X140254285Y-80510000D01*
X140159047Y-80557619D01*
X139920952Y-80557619D01*
X139778095Y-80510000D01*
X139349523Y-79557619D02*
X139349523Y-80557619D01*
X139111428Y-80557619D01*
X138968571Y-80510000D01*
X138873333Y-80414761D01*
X138825714Y-80319523D01*
X138778095Y-80129047D01*
X138778095Y-79986190D01*
X138825714Y-79795714D01*
X138873333Y-79700476D01*
X138968571Y-79605238D01*
X139111428Y-79557619D01*
X139349523Y-79557619D01*
X138159047Y-80557619D02*
X137968571Y-80557619D01*
X137873333Y-80510000D01*
X137778095Y-80414761D01*
X137730476Y-80224285D01*
X137730476Y-79890952D01*
X137778095Y-79700476D01*
X137873333Y-79605238D01*
X137968571Y-79557619D01*
X138159047Y-79557619D01*
X138254285Y-79605238D01*
X138349523Y-79700476D01*
X138397142Y-79890952D01*
X138397142Y-80224285D01*
X138349523Y-80414761D01*
X138254285Y-80510000D01*
X138159047Y-80557619D01*
X140230476Y-74525238D02*
X140087619Y-74477619D01*
X139849523Y-74477619D01*
X139754285Y-74525238D01*
X139706666Y-74572857D01*
X139659047Y-74668095D01*
X139659047Y-74763333D01*
X139706666Y-74858571D01*
X139754285Y-74906190D01*
X139849523Y-74953809D01*
X140040000Y-75001428D01*
X140135238Y-75049047D01*
X140182857Y-75096666D01*
X140230476Y-75191904D01*
X140230476Y-75287142D01*
X140182857Y-75382380D01*
X140135238Y-75430000D01*
X140040000Y-75477619D01*
X139801904Y-75477619D01*
X139659047Y-75430000D01*
X138659047Y-74572857D02*
X138706666Y-74525238D01*
X138849523Y-74477619D01*
X138944761Y-74477619D01*
X139087619Y-74525238D01*
X139182857Y-74620476D01*
X139230476Y-74715714D01*
X139278095Y-74906190D01*
X139278095Y-75049047D01*
X139230476Y-75239523D01*
X139182857Y-75334761D01*
X139087619Y-75430000D01*
X138944761Y-75477619D01*
X138849523Y-75477619D01*
X138706666Y-75430000D01*
X138659047Y-75382380D01*
X137754285Y-74477619D02*
X138230476Y-74477619D01*
X138230476Y-75477619D01*
X140420952Y-84637619D02*
X140420952Y-85637619D01*
X139944761Y-84637619D02*
X139944761Y-85637619D01*
X139373333Y-84637619D01*
X139373333Y-85637619D01*
X139040000Y-85637619D02*
X138468571Y-85637619D01*
X138754285Y-84637619D02*
X138754285Y-85637619D01*
X137611428Y-84637619D02*
X138182857Y-84637619D01*
X137897142Y-84637619D02*
X137897142Y-85637619D01*
X137992380Y-85494761D01*
X138087619Y-85399523D01*
X138182857Y-85351904D01*
X140420952Y-82097619D02*
X140420952Y-83097619D01*
X139944761Y-82097619D02*
X139944761Y-83097619D01*
X139373333Y-82097619D01*
X139373333Y-83097619D01*
X139040000Y-83097619D02*
X138468571Y-83097619D01*
X138754285Y-82097619D02*
X138754285Y-83097619D01*
X138182857Y-83002380D02*
X138135238Y-83050000D01*
X138040000Y-83097619D01*
X137801904Y-83097619D01*
X137706666Y-83050000D01*
X137659047Y-83002380D01*
X137611428Y-82907142D01*
X137611428Y-82811904D01*
X137659047Y-82669047D01*
X138230476Y-82097619D01*
X137611428Y-82097619D01*
X140254285Y-77065238D02*
X140111428Y-77017619D01*
X139873333Y-77017619D01*
X139778095Y-77065238D01*
X139730476Y-77112857D01*
X139682857Y-77208095D01*
X139682857Y-77303333D01*
X139730476Y-77398571D01*
X139778095Y-77446190D01*
X139873333Y-77493809D01*
X140063809Y-77541428D01*
X140159047Y-77589047D01*
X140206666Y-77636666D01*
X140254285Y-77731904D01*
X140254285Y-77827142D01*
X140206666Y-77922380D01*
X140159047Y-77970000D01*
X140063809Y-78017619D01*
X139825714Y-78017619D01*
X139682857Y-77970000D01*
X139254285Y-77017619D02*
X139254285Y-78017619D01*
X139016190Y-78017619D01*
X138873333Y-77970000D01*
X138778095Y-77874761D01*
X138730476Y-77779523D01*
X138682857Y-77589047D01*
X138682857Y-77446190D01*
X138730476Y-77255714D01*
X138778095Y-77160476D01*
X138873333Y-77065238D01*
X139016190Y-77017619D01*
X139254285Y-77017619D01*
X138301904Y-77303333D02*
X137825714Y-77303333D01*
X138397142Y-77017619D02*
X138063809Y-78017619D01*
X137730476Y-77017619D01*
X139801904Y-93220000D02*
X139897142Y-93267619D01*
X140040000Y-93267619D01*
X140182857Y-93220000D01*
X140278095Y-93124761D01*
X140325714Y-93029523D01*
X140373333Y-92839047D01*
X140373333Y-92696190D01*
X140325714Y-92505714D01*
X140278095Y-92410476D01*
X140182857Y-92315238D01*
X140040000Y-92267619D01*
X139944761Y-92267619D01*
X139801904Y-92315238D01*
X139754285Y-92362857D01*
X139754285Y-92696190D01*
X139944761Y-92696190D01*
X139325714Y-92267619D02*
X139325714Y-93267619D01*
X138754285Y-92267619D01*
X138754285Y-93267619D01*
X138278095Y-92267619D02*
X138278095Y-93267619D01*
X138040000Y-93267619D01*
X137897142Y-93220000D01*
X137801904Y-93124761D01*
X137754285Y-93029523D01*
X137706666Y-92839047D01*
X137706666Y-92696190D01*
X137754285Y-92505714D01*
X137801904Y-92410476D01*
X137897142Y-92315238D01*
X138040000Y-92267619D01*
X138278095Y-92267619D01*
X140373333Y-90717619D02*
X140040000Y-89717619D01*
X139706666Y-90717619D01*
X138801904Y-89812857D02*
X138849523Y-89765238D01*
X138992380Y-89717619D01*
X139087619Y-89717619D01*
X139230476Y-89765238D01*
X139325714Y-89860476D01*
X139373333Y-89955714D01*
X139420952Y-90146190D01*
X139420952Y-90289047D01*
X139373333Y-90479523D01*
X139325714Y-90574761D01*
X139230476Y-90670000D01*
X139087619Y-90717619D01*
X138992380Y-90717619D01*
X138849523Y-90670000D01*
X138801904Y-90622380D01*
X137801904Y-89812857D02*
X137849523Y-89765238D01*
X137992380Y-89717619D01*
X138087619Y-89717619D01*
X138230476Y-89765238D01*
X138325714Y-89860476D01*
X138373333Y-89955714D01*
X138420952Y-90146190D01*
X138420952Y-90289047D01*
X138373333Y-90479523D01*
X138325714Y-90574761D01*
X138230476Y-90670000D01*
X138087619Y-90717619D01*
X137992380Y-90717619D01*
X137849523Y-90670000D01*
X137801904Y-90622380D01*
X139866666Y-87272857D02*
X139914285Y-87225238D01*
X140057142Y-87177619D01*
X140152380Y-87177619D01*
X140295238Y-87225238D01*
X140390476Y-87320476D01*
X140438095Y-87415714D01*
X140485714Y-87606190D01*
X140485714Y-87749047D01*
X140438095Y-87939523D01*
X140390476Y-88034761D01*
X140295238Y-88130000D01*
X140152380Y-88177619D01*
X140057142Y-88177619D01*
X139914285Y-88130000D01*
X139866666Y-88082380D01*
X139485714Y-87225238D02*
X139342857Y-87177619D01*
X139104761Y-87177619D01*
X139009523Y-87225238D01*
X138961904Y-87272857D01*
X138914285Y-87368095D01*
X138914285Y-87463333D01*
X138961904Y-87558571D01*
X139009523Y-87606190D01*
X139104761Y-87653809D01*
X139295238Y-87701428D01*
X139390476Y-87749047D01*
X139438095Y-87796666D01*
X139485714Y-87891904D01*
X139485714Y-87987142D01*
X139438095Y-88082380D01*
X139390476Y-88130000D01*
X139295238Y-88177619D01*
X139057142Y-88177619D01*
X138914285Y-88130000D01*
%TO.C,R2*%
X120483333Y-78557380D02*
X120150000Y-78081190D01*
X119911904Y-78557380D02*
X119911904Y-77557380D01*
X120292857Y-77557380D01*
X120388095Y-77605000D01*
X120435714Y-77652619D01*
X120483333Y-77747857D01*
X120483333Y-77890714D01*
X120435714Y-77985952D01*
X120388095Y-78033571D01*
X120292857Y-78081190D01*
X119911904Y-78081190D01*
X120864285Y-77652619D02*
X120911904Y-77605000D01*
X121007142Y-77557380D01*
X121245238Y-77557380D01*
X121340476Y-77605000D01*
X121388095Y-77652619D01*
X121435714Y-77747857D01*
X121435714Y-77843095D01*
X121388095Y-77985952D01*
X120816666Y-78557380D01*
X121435714Y-78557380D01*
%TO.C,J12*%
X96177380Y-72564523D02*
X96891666Y-72564523D01*
X97034523Y-72612142D01*
X97129761Y-72707380D01*
X97177380Y-72850238D01*
X97177380Y-72945476D01*
X97177380Y-71564523D02*
X97177380Y-72135952D01*
X97177380Y-71850238D02*
X96177380Y-71850238D01*
X96320238Y-71945476D01*
X96415476Y-72040714D01*
X96463095Y-72135952D01*
X96272619Y-71183571D02*
X96225000Y-71135952D01*
X96177380Y-71040714D01*
X96177380Y-70802619D01*
X96225000Y-70707380D01*
X96272619Y-70659761D01*
X96367857Y-70612142D01*
X96463095Y-70612142D01*
X96605952Y-70659761D01*
X97177380Y-71231190D01*
X97177380Y-70612142D01*
%TO.C,U1*%
X116927380Y-89036904D02*
X117736904Y-89036904D01*
X117832142Y-88989285D01*
X117879761Y-88941666D01*
X117927380Y-88846428D01*
X117927380Y-88655952D01*
X117879761Y-88560714D01*
X117832142Y-88513095D01*
X117736904Y-88465476D01*
X116927380Y-88465476D01*
X117927380Y-87465476D02*
X117927380Y-88036904D01*
X117927380Y-87751190D02*
X116927380Y-87751190D01*
X117070238Y-87846428D01*
X117165476Y-87941666D01*
X117213095Y-88036904D01*
%TO.C,REF\u002A\u002A*%
X139636666Y-100147380D02*
X139303333Y-99671190D01*
X139065238Y-100147380D02*
X139065238Y-99147380D01*
X139446190Y-99147380D01*
X139541428Y-99195000D01*
X139589047Y-99242619D01*
X139636666Y-99337857D01*
X139636666Y-99480714D01*
X139589047Y-99575952D01*
X139541428Y-99623571D01*
X139446190Y-99671190D01*
X139065238Y-99671190D01*
X140065238Y-99623571D02*
X140398571Y-99623571D01*
X140541428Y-100147380D02*
X140065238Y-100147380D01*
X140065238Y-99147380D01*
X140541428Y-99147380D01*
X141303333Y-99623571D02*
X140970000Y-99623571D01*
X140970000Y-100147380D02*
X140970000Y-99147380D01*
X141446190Y-99147380D01*
X141970000Y-99147380D02*
X141970000Y-99385476D01*
X141731904Y-99290238D02*
X141970000Y-99385476D01*
X142208095Y-99290238D01*
X141827142Y-99575952D02*
X141970000Y-99385476D01*
X142112857Y-99575952D01*
X142731904Y-99147380D02*
X142731904Y-99385476D01*
X142493809Y-99290238D02*
X142731904Y-99385476D01*
X142970000Y-99290238D01*
X142589047Y-99575952D02*
X142731904Y-99385476D01*
X142874761Y-99575952D01*
%TO.C,R3*%
X120483333Y-81097380D02*
X120150000Y-80621190D01*
X119911904Y-81097380D02*
X119911904Y-80097380D01*
X120292857Y-80097380D01*
X120388095Y-80145000D01*
X120435714Y-80192619D01*
X120483333Y-80287857D01*
X120483333Y-80430714D01*
X120435714Y-80525952D01*
X120388095Y-80573571D01*
X120292857Y-80621190D01*
X119911904Y-80621190D01*
X120816666Y-80097380D02*
X121435714Y-80097380D01*
X121102380Y-80478333D01*
X121245238Y-80478333D01*
X121340476Y-80525952D01*
X121388095Y-80573571D01*
X121435714Y-80668809D01*
X121435714Y-80906904D01*
X121388095Y-81002142D01*
X121340476Y-81049761D01*
X121245238Y-81097380D01*
X120959523Y-81097380D01*
X120864285Y-81049761D01*
X120816666Y-81002142D01*
%TO.C,U2*%
X93853095Y-82637380D02*
X93853095Y-83446904D01*
X93900714Y-83542142D01*
X93948333Y-83589761D01*
X94043571Y-83637380D01*
X94234047Y-83637380D01*
X94329285Y-83589761D01*
X94376904Y-83542142D01*
X94424523Y-83446904D01*
X94424523Y-82637380D01*
X94853095Y-82732619D02*
X94900714Y-82685000D01*
X94995952Y-82637380D01*
X95234047Y-82637380D01*
X95329285Y-82685000D01*
X95376904Y-82732619D01*
X95424523Y-82827857D01*
X95424523Y-82923095D01*
X95376904Y-83065952D01*
X94805476Y-83637380D01*
X95424523Y-83637380D01*
X87187738Y-78827380D02*
X87759166Y-78827380D01*
X87473452Y-79827380D02*
X87473452Y-78827380D01*
X87997261Y-78827380D02*
X88663928Y-79827380D01*
X88663928Y-78827380D02*
X87997261Y-79827380D01*
X98137500Y-78827380D02*
X98137500Y-79636904D01*
X98185119Y-79732142D01*
X98232738Y-79779761D01*
X98327976Y-79827380D01*
X98518452Y-79827380D01*
X98613690Y-79779761D01*
X98661309Y-79732142D01*
X98708928Y-79636904D01*
X98708928Y-78827380D01*
X99137500Y-79779761D02*
X99280357Y-79827380D01*
X99518452Y-79827380D01*
X99613690Y-79779761D01*
X99661309Y-79732142D01*
X99708928Y-79636904D01*
X99708928Y-79541666D01*
X99661309Y-79446428D01*
X99613690Y-79398809D01*
X99518452Y-79351190D01*
X99327976Y-79303571D01*
X99232738Y-79255952D01*
X99185119Y-79208333D01*
X99137500Y-79113095D01*
X99137500Y-79017857D01*
X99185119Y-78922619D01*
X99232738Y-78875000D01*
X99327976Y-78827380D01*
X99566071Y-78827380D01*
X99708928Y-78875000D01*
X100470833Y-79303571D02*
X100613690Y-79351190D01*
X100661309Y-79398809D01*
X100708928Y-79494047D01*
X100708928Y-79636904D01*
X100661309Y-79732142D01*
X100613690Y-79779761D01*
X100518452Y-79827380D01*
X100137500Y-79827380D01*
X100137500Y-78827380D01*
X100470833Y-78827380D01*
X100566071Y-78875000D01*
X100613690Y-78922619D01*
X100661309Y-79017857D01*
X100661309Y-79113095D01*
X100613690Y-79208333D01*
X100566071Y-79255952D01*
X100470833Y-79303571D01*
X100137500Y-79303571D01*
X101137500Y-79446428D02*
X101899404Y-79446428D01*
X101518452Y-79827380D02*
X101518452Y-79065476D01*
X99137500Y-92527380D02*
X99137500Y-91527380D01*
X99804166Y-91527380D02*
X99994642Y-91527380D01*
X100089880Y-91575000D01*
X100185119Y-91670238D01*
X100232738Y-91860714D01*
X100232738Y-92194047D01*
X100185119Y-92384523D01*
X100089880Y-92479761D01*
X99994642Y-92527380D01*
X99804166Y-92527380D01*
X99708928Y-92479761D01*
X99613690Y-92384523D01*
X99566071Y-92194047D01*
X99566071Y-91860714D01*
X99613690Y-91670238D01*
X99708928Y-91575000D01*
X99804166Y-91527380D01*
X100423214Y-92622619D02*
X101185119Y-92622619D01*
X101947023Y-92527380D02*
X101375595Y-92527380D01*
X101661309Y-92527380D02*
X101661309Y-91527380D01*
X101566071Y-91670238D01*
X101470833Y-91765476D01*
X101375595Y-91813095D01*
X87187738Y-73747380D02*
X87521071Y-74747380D01*
X87854404Y-73747380D01*
X88759166Y-74652142D02*
X88711547Y-74699761D01*
X88568690Y-74747380D01*
X88473452Y-74747380D01*
X88330595Y-74699761D01*
X88235357Y-74604523D01*
X88187738Y-74509285D01*
X88140119Y-74318809D01*
X88140119Y-74175952D01*
X88187738Y-73985476D01*
X88235357Y-73890238D01*
X88330595Y-73795000D01*
X88473452Y-73747380D01*
X88568690Y-73747380D01*
X88711547Y-73795000D01*
X88759166Y-73842619D01*
X89759166Y-74652142D02*
X89711547Y-74699761D01*
X89568690Y-74747380D01*
X89473452Y-74747380D01*
X89330595Y-74699761D01*
X89235357Y-74604523D01*
X89187738Y-74509285D01*
X89140119Y-74318809D01*
X89140119Y-74175952D01*
X89187738Y-73985476D01*
X89235357Y-73890238D01*
X89330595Y-73795000D01*
X89473452Y-73747380D01*
X89568690Y-73747380D01*
X89711547Y-73795000D01*
X89759166Y-73842619D01*
X99137500Y-87447380D02*
X99137500Y-86447380D01*
X99804166Y-86447380D02*
X99994642Y-86447380D01*
X100089880Y-86495000D01*
X100185119Y-86590238D01*
X100232738Y-86780714D01*
X100232738Y-87114047D01*
X100185119Y-87304523D01*
X100089880Y-87399761D01*
X99994642Y-87447380D01*
X99804166Y-87447380D01*
X99708928Y-87399761D01*
X99613690Y-87304523D01*
X99566071Y-87114047D01*
X99566071Y-86780714D01*
X99613690Y-86590238D01*
X99708928Y-86495000D01*
X99804166Y-86447380D01*
X100423214Y-87542619D02*
X101185119Y-87542619D01*
X101375595Y-86542619D02*
X101423214Y-86495000D01*
X101518452Y-86447380D01*
X101756547Y-86447380D01*
X101851785Y-86495000D01*
X101899404Y-86542619D01*
X101947023Y-86637857D01*
X101947023Y-86733095D01*
X101899404Y-86875952D01*
X101327976Y-87447380D01*
X101947023Y-87447380D01*
X99851785Y-89035000D02*
X99756547Y-88987380D01*
X99613690Y-88987380D01*
X99470833Y-89035000D01*
X99375595Y-89130238D01*
X99327976Y-89225476D01*
X99280357Y-89415952D01*
X99280357Y-89558809D01*
X99327976Y-89749285D01*
X99375595Y-89844523D01*
X99470833Y-89939761D01*
X99613690Y-89987380D01*
X99708928Y-89987380D01*
X99851785Y-89939761D01*
X99899404Y-89892142D01*
X99899404Y-89558809D01*
X99708928Y-89558809D01*
X100327976Y-89987380D02*
X100327976Y-88987380D01*
X100899404Y-89987380D01*
X100899404Y-88987380D01*
X101375595Y-89987380D02*
X101375595Y-88987380D01*
X101613690Y-88987380D01*
X101756547Y-89035000D01*
X101851785Y-89130238D01*
X101899404Y-89225476D01*
X101947023Y-89415952D01*
X101947023Y-89558809D01*
X101899404Y-89749285D01*
X101851785Y-89844523D01*
X101756547Y-89939761D01*
X101613690Y-89987380D01*
X101375595Y-89987380D01*
X87330595Y-84907380D02*
X87330595Y-83907380D01*
X87568690Y-83907380D01*
X87711547Y-83955000D01*
X87806785Y-84050238D01*
X87854404Y-84145476D01*
X87902023Y-84335952D01*
X87902023Y-84478809D01*
X87854404Y-84669285D01*
X87806785Y-84764523D01*
X87711547Y-84859761D01*
X87568690Y-84907380D01*
X87330595Y-84907380D01*
X88282976Y-84621666D02*
X88759166Y-84621666D01*
X88187738Y-84907380D02*
X88521071Y-83907380D01*
X88854404Y-84907380D01*
X89759166Y-84812142D02*
X89711547Y-84859761D01*
X89568690Y-84907380D01*
X89473452Y-84907380D01*
X89330595Y-84859761D01*
X89235357Y-84764523D01*
X89187738Y-84669285D01*
X89140119Y-84478809D01*
X89140119Y-84335952D01*
X89187738Y-84145476D01*
X89235357Y-84050238D01*
X89330595Y-83955000D01*
X89473452Y-83907380D01*
X89568690Y-83907380D01*
X89711547Y-83955000D01*
X89759166Y-84002619D01*
X89949642Y-85002619D02*
X90711547Y-85002619D01*
X91425833Y-84907380D02*
X90949642Y-84907380D01*
X90949642Y-83907380D01*
X87854404Y-89035000D02*
X87759166Y-88987380D01*
X87616309Y-88987380D01*
X87473452Y-89035000D01*
X87378214Y-89130238D01*
X87330595Y-89225476D01*
X87282976Y-89415952D01*
X87282976Y-89558809D01*
X87330595Y-89749285D01*
X87378214Y-89844523D01*
X87473452Y-89939761D01*
X87616309Y-89987380D01*
X87711547Y-89987380D01*
X87854404Y-89939761D01*
X87902023Y-89892142D01*
X87902023Y-89558809D01*
X87711547Y-89558809D01*
X88330595Y-89987380D02*
X88330595Y-88987380D01*
X88902023Y-89987380D01*
X88902023Y-88987380D01*
X89378214Y-89987380D02*
X89378214Y-88987380D01*
X89616309Y-88987380D01*
X89759166Y-89035000D01*
X89854404Y-89130238D01*
X89902023Y-89225476D01*
X89949642Y-89415952D01*
X89949642Y-89558809D01*
X89902023Y-89749285D01*
X89854404Y-89844523D01*
X89759166Y-89939761D01*
X89616309Y-89987380D01*
X89378214Y-89987380D01*
X95994642Y-84621666D02*
X96470833Y-84621666D01*
X95899404Y-84907380D02*
X96232738Y-83907380D01*
X96566071Y-84907380D01*
X96899404Y-84907380D02*
X96899404Y-83907380D01*
X97137500Y-83907380D01*
X97280357Y-83955000D01*
X97375595Y-84050238D01*
X97423214Y-84145476D01*
X97470833Y-84335952D01*
X97470833Y-84478809D01*
X97423214Y-84669285D01*
X97375595Y-84764523D01*
X97280357Y-84859761D01*
X97137500Y-84907380D01*
X96899404Y-84907380D01*
X97899404Y-84907380D02*
X97899404Y-83907380D01*
X98470833Y-84907380D02*
X98042261Y-84335952D01*
X98470833Y-83907380D02*
X97899404Y-84478809D01*
X98899404Y-84383571D02*
X99232738Y-84383571D01*
X99375595Y-84907380D02*
X98899404Y-84907380D01*
X98899404Y-83907380D01*
X99375595Y-83907380D01*
X99994642Y-84431190D02*
X99994642Y-84907380D01*
X99661309Y-83907380D02*
X99994642Y-84431190D01*
X100327976Y-83907380D01*
X100423214Y-85002619D02*
X101185119Y-85002619D01*
X101947023Y-84907380D02*
X101375595Y-84907380D01*
X101661309Y-84907380D02*
X101661309Y-83907380D01*
X101566071Y-84050238D01*
X101470833Y-84145476D01*
X101375595Y-84193095D01*
X87282976Y-92479761D02*
X87425833Y-92527380D01*
X87663928Y-92527380D01*
X87759166Y-92479761D01*
X87806785Y-92432142D01*
X87854404Y-92336904D01*
X87854404Y-92241666D01*
X87806785Y-92146428D01*
X87759166Y-92098809D01*
X87663928Y-92051190D01*
X87473452Y-92003571D01*
X87378214Y-91955952D01*
X87330595Y-91908333D01*
X87282976Y-91813095D01*
X87282976Y-91717857D01*
X87330595Y-91622619D01*
X87378214Y-91575000D01*
X87473452Y-91527380D01*
X87711547Y-91527380D01*
X87854404Y-91575000D01*
X88282976Y-92527380D02*
X88282976Y-91527380D01*
X88663928Y-91527380D01*
X88759166Y-91575000D01*
X88806785Y-91622619D01*
X88854404Y-91717857D01*
X88854404Y-91860714D01*
X88806785Y-91955952D01*
X88759166Y-92003571D01*
X88663928Y-92051190D01*
X88282976Y-92051190D01*
X89282976Y-92527380D02*
X89282976Y-91527380D01*
X89854404Y-92527380D02*
X89425833Y-91955952D01*
X89854404Y-91527380D02*
X89282976Y-92098809D01*
X90044880Y-92622619D02*
X90806785Y-92622619D01*
X90997261Y-91622619D02*
X91044880Y-91575000D01*
X91140119Y-91527380D01*
X91378214Y-91527380D01*
X91473452Y-91575000D01*
X91521071Y-91622619D01*
X91568690Y-91717857D01*
X91568690Y-91813095D01*
X91521071Y-91955952D01*
X90949642Y-92527380D01*
X91568690Y-92527380D01*
X87902023Y-77287380D02*
X87568690Y-76811190D01*
X87330595Y-77287380D02*
X87330595Y-76287380D01*
X87711547Y-76287380D01*
X87806785Y-76335000D01*
X87854404Y-76382619D01*
X87902023Y-76477857D01*
X87902023Y-76620714D01*
X87854404Y-76715952D01*
X87806785Y-76763571D01*
X87711547Y-76811190D01*
X87330595Y-76811190D01*
X88235357Y-76287380D02*
X88902023Y-77287380D01*
X88902023Y-76287380D02*
X88235357Y-77287380D01*
X98137500Y-76287380D02*
X98137500Y-77096904D01*
X98185119Y-77192142D01*
X98232738Y-77239761D01*
X98327976Y-77287380D01*
X98518452Y-77287380D01*
X98613690Y-77239761D01*
X98661309Y-77192142D01*
X98708928Y-77096904D01*
X98708928Y-76287380D01*
X99137500Y-77239761D02*
X99280357Y-77287380D01*
X99518452Y-77287380D01*
X99613690Y-77239761D01*
X99661309Y-77192142D01*
X99708928Y-77096904D01*
X99708928Y-77001666D01*
X99661309Y-76906428D01*
X99613690Y-76858809D01*
X99518452Y-76811190D01*
X99327976Y-76763571D01*
X99232738Y-76715952D01*
X99185119Y-76668333D01*
X99137500Y-76573095D01*
X99137500Y-76477857D01*
X99185119Y-76382619D01*
X99232738Y-76335000D01*
X99327976Y-76287380D01*
X99566071Y-76287380D01*
X99708928Y-76335000D01*
X100470833Y-76763571D02*
X100613690Y-76811190D01*
X100661309Y-76858809D01*
X100708928Y-76954047D01*
X100708928Y-77096904D01*
X100661309Y-77192142D01*
X100613690Y-77239761D01*
X100518452Y-77287380D01*
X100137500Y-77287380D01*
X100137500Y-76287380D01*
X100470833Y-76287380D01*
X100566071Y-76335000D01*
X100613690Y-76382619D01*
X100661309Y-76477857D01*
X100661309Y-76573095D01*
X100613690Y-76668333D01*
X100566071Y-76715952D01*
X100470833Y-76763571D01*
X100137500Y-76763571D01*
X101137500Y-76906428D02*
X101899404Y-76906428D01*
X98851785Y-74223571D02*
X98994642Y-74271190D01*
X99042261Y-74318809D01*
X99089880Y-74414047D01*
X99089880Y-74556904D01*
X99042261Y-74652142D01*
X98994642Y-74699761D01*
X98899404Y-74747380D01*
X98518452Y-74747380D01*
X98518452Y-73747380D01*
X98851785Y-73747380D01*
X98947023Y-73795000D01*
X98994642Y-73842619D01*
X99042261Y-73937857D01*
X99042261Y-74033095D01*
X98994642Y-74128333D01*
X98947023Y-74175952D01*
X98851785Y-74223571D01*
X98518452Y-74223571D01*
X99518452Y-73747380D02*
X99518452Y-74556904D01*
X99566071Y-74652142D01*
X99613690Y-74699761D01*
X99708928Y-74747380D01*
X99899404Y-74747380D01*
X99994642Y-74699761D01*
X100042261Y-74652142D01*
X100089880Y-74556904D01*
X100089880Y-73747380D01*
X100518452Y-74699761D02*
X100661309Y-74747380D01*
X100899404Y-74747380D01*
X100994642Y-74699761D01*
X101042261Y-74652142D01*
X101089880Y-74556904D01*
X101089880Y-74461666D01*
X101042261Y-74366428D01*
X100994642Y-74318809D01*
X100899404Y-74271190D01*
X100708928Y-74223571D01*
X100613690Y-74175952D01*
X100566071Y-74128333D01*
X100518452Y-74033095D01*
X100518452Y-73937857D01*
X100566071Y-73842619D01*
X100613690Y-73795000D01*
X100708928Y-73747380D01*
X100947023Y-73747380D01*
X101089880Y-73795000D01*
X101708928Y-74271190D02*
X101708928Y-74747380D01*
X101375595Y-73747380D02*
X101708928Y-74271190D01*
X102042261Y-73747380D01*
X87282976Y-87399761D02*
X87425833Y-87447380D01*
X87663928Y-87447380D01*
X87759166Y-87399761D01*
X87806785Y-87352142D01*
X87854404Y-87256904D01*
X87854404Y-87161666D01*
X87806785Y-87066428D01*
X87759166Y-87018809D01*
X87663928Y-86971190D01*
X87473452Y-86923571D01*
X87378214Y-86875952D01*
X87330595Y-86828333D01*
X87282976Y-86733095D01*
X87282976Y-86637857D01*
X87330595Y-86542619D01*
X87378214Y-86495000D01*
X87473452Y-86447380D01*
X87711547Y-86447380D01*
X87854404Y-86495000D01*
X88282976Y-87447380D02*
X88282976Y-86447380D01*
X88663928Y-86447380D01*
X88759166Y-86495000D01*
X88806785Y-86542619D01*
X88854404Y-86637857D01*
X88854404Y-86780714D01*
X88806785Y-86875952D01*
X88759166Y-86923571D01*
X88663928Y-86971190D01*
X88282976Y-86971190D01*
X89282976Y-87447380D02*
X89282976Y-86447380D01*
X89854404Y-87447380D02*
X89425833Y-86875952D01*
X89854404Y-86447380D02*
X89282976Y-87018809D01*
X90044880Y-87542619D02*
X90806785Y-87542619D01*
X91568690Y-87447380D02*
X90997261Y-87447380D01*
X91282976Y-87447380D02*
X91282976Y-86447380D01*
X91187738Y-86590238D01*
X91092500Y-86685476D01*
X90997261Y-86733095D01*
X87330595Y-82367380D02*
X87330595Y-81367380D01*
X87568690Y-81367380D01*
X87711547Y-81415000D01*
X87806785Y-81510238D01*
X87854404Y-81605476D01*
X87902023Y-81795952D01*
X87902023Y-81938809D01*
X87854404Y-82129285D01*
X87806785Y-82224523D01*
X87711547Y-82319761D01*
X87568690Y-82367380D01*
X87330595Y-82367380D01*
X88282976Y-82081666D02*
X88759166Y-82081666D01*
X88187738Y-82367380D02*
X88521071Y-81367380D01*
X88854404Y-82367380D01*
X89759166Y-82272142D02*
X89711547Y-82319761D01*
X89568690Y-82367380D01*
X89473452Y-82367380D01*
X89330595Y-82319761D01*
X89235357Y-82224523D01*
X89187738Y-82129285D01*
X89140119Y-81938809D01*
X89140119Y-81795952D01*
X89187738Y-81605476D01*
X89235357Y-81510238D01*
X89330595Y-81415000D01*
X89473452Y-81367380D01*
X89568690Y-81367380D01*
X89711547Y-81415000D01*
X89759166Y-81462619D01*
X89949642Y-82462619D02*
X90711547Y-82462619D01*
X91521071Y-82367380D02*
X91187738Y-81891190D01*
X90949642Y-82367380D02*
X90949642Y-81367380D01*
X91330595Y-81367380D01*
X91425833Y-81415000D01*
X91473452Y-81462619D01*
X91521071Y-81557857D01*
X91521071Y-81700714D01*
X91473452Y-81795952D01*
X91425833Y-81843571D01*
X91330595Y-81891190D01*
X90949642Y-81891190D01*
X95994642Y-82081666D02*
X96470833Y-82081666D01*
X95899404Y-82367380D02*
X96232738Y-81367380D01*
X96566071Y-82367380D01*
X96899404Y-82367380D02*
X96899404Y-81367380D01*
X97137500Y-81367380D01*
X97280357Y-81415000D01*
X97375595Y-81510238D01*
X97423214Y-81605476D01*
X97470833Y-81795952D01*
X97470833Y-81938809D01*
X97423214Y-82129285D01*
X97375595Y-82224523D01*
X97280357Y-82319761D01*
X97137500Y-82367380D01*
X96899404Y-82367380D01*
X97899404Y-82367380D02*
X97899404Y-81367380D01*
X98470833Y-82367380D02*
X98042261Y-81795952D01*
X98470833Y-81367380D02*
X97899404Y-81938809D01*
X98899404Y-81843571D02*
X99232738Y-81843571D01*
X99375595Y-82367380D02*
X98899404Y-82367380D01*
X98899404Y-81367380D01*
X99375595Y-81367380D01*
X99994642Y-81891190D02*
X99994642Y-82367380D01*
X99661309Y-81367380D02*
X99994642Y-81891190D01*
X100327976Y-81367380D01*
X100423214Y-82462619D02*
X101185119Y-82462619D01*
X101375595Y-81462619D02*
X101423214Y-81415000D01*
X101518452Y-81367380D01*
X101756547Y-81367380D01*
X101851785Y-81415000D01*
X101899404Y-81462619D01*
X101947023Y-81557857D01*
X101947023Y-81653095D01*
X101899404Y-81795952D01*
X101327976Y-82367380D01*
X101947023Y-82367380D01*
%TO.C,J7*%
X103806666Y-93432380D02*
X103806666Y-94146666D01*
X103759047Y-94289523D01*
X103663809Y-94384761D01*
X103520952Y-94432380D01*
X103425714Y-94432380D01*
X104187619Y-93432380D02*
X104854285Y-93432380D01*
X104425714Y-94432380D01*
%TO.C,J6*%
X90257380Y-72088333D02*
X90971666Y-72088333D01*
X91114523Y-72135952D01*
X91209761Y-72231190D01*
X91257380Y-72374047D01*
X91257380Y-72469285D01*
X90257380Y-71183571D02*
X90257380Y-71374047D01*
X90305000Y-71469285D01*
X90352619Y-71516904D01*
X90495476Y-71612142D01*
X90685952Y-71659761D01*
X91066904Y-71659761D01*
X91162142Y-71612142D01*
X91209761Y-71564523D01*
X91257380Y-71469285D01*
X91257380Y-71278809D01*
X91209761Y-71183571D01*
X91162142Y-71135952D01*
X91066904Y-71088333D01*
X90828809Y-71088333D01*
X90733571Y-71135952D01*
X90685952Y-71183571D01*
X90638333Y-71278809D01*
X90638333Y-71469285D01*
X90685952Y-71564523D01*
X90733571Y-71612142D01*
X90828809Y-71659761D01*
%TO.C,Q1*%
X114212619Y-78835238D02*
X114165000Y-78930476D01*
X114069761Y-79025714D01*
X113926904Y-79168571D01*
X113879285Y-79263809D01*
X113879285Y-79359047D01*
X114117380Y-79311428D02*
X114069761Y-79406666D01*
X113974523Y-79501904D01*
X113784047Y-79549523D01*
X113450714Y-79549523D01*
X113260238Y-79501904D01*
X113165000Y-79406666D01*
X113117380Y-79311428D01*
X113117380Y-79120952D01*
X113165000Y-79025714D01*
X113260238Y-78930476D01*
X113450714Y-78882857D01*
X113784047Y-78882857D01*
X113974523Y-78930476D01*
X114069761Y-79025714D01*
X114117380Y-79120952D01*
X114117380Y-79311428D01*
X114117380Y-77930476D02*
X114117380Y-78501904D01*
X114117380Y-78216190D02*
X113117380Y-78216190D01*
X113260238Y-78311428D01*
X113355476Y-78406666D01*
X113403095Y-78501904D01*
D11*
%TO.C,J4*%
X130175000Y-73085000D02*
X135315000Y-73085000D01*
X128905000Y-73085000D02*
X127575000Y-73085000D01*
X130175000Y-73085000D02*
X130175000Y-70425000D01*
X130175000Y-70425000D02*
X135315000Y-70425000D01*
X135315000Y-73085000D02*
X135315000Y-70425000D01*
X127575000Y-73085000D02*
X127575000Y-71755000D01*
%TO.C,J13*%
X99060000Y-97850000D02*
X97730000Y-97850000D01*
X102930000Y-97850000D02*
X102930000Y-95190000D01*
X97730000Y-97850000D02*
X97730000Y-96520000D01*
X100330000Y-97850000D02*
X102930000Y-97850000D01*
X100330000Y-97850000D02*
X100330000Y-95190000D01*
X100330000Y-95190000D02*
X102930000Y-95190000D01*
%TO.C,J2*%
X135950000Y-97850000D02*
X135950000Y-95190000D01*
X133350000Y-97850000D02*
X135950000Y-97850000D01*
X130750000Y-97850000D02*
X130750000Y-96520000D01*
X133350000Y-95190000D02*
X135950000Y-95190000D01*
X133350000Y-97850000D02*
X133350000Y-95190000D01*
X132080000Y-97850000D02*
X130750000Y-97850000D01*
%TO.C,U4*%
X126830000Y-79510001D02*
X126830000Y-70890000D01*
X106850000Y-70890000D02*
X106850000Y-96750000D01*
X126470000Y-79510001D02*
X126830000Y-79510001D01*
X126470000Y-88130000D02*
X126470000Y-79510001D01*
X106850000Y-96750000D02*
X126830000Y-96750000D01*
X126830000Y-96750000D02*
X126830000Y-88130000D01*
X126830000Y-88130000D02*
X126470000Y-88130000D01*
X126830000Y-70890000D02*
X106850000Y-70890000D01*
%TO.C,J10*%
X95190000Y-95190000D02*
X96520000Y-95190000D01*
X95190000Y-97850000D02*
X97850000Y-97850000D01*
X95190000Y-96520000D02*
X95190000Y-95190000D01*
X95190000Y-97790000D02*
X95190000Y-97850000D01*
X95190000Y-97790000D02*
X97850000Y-97790000D01*
X97850000Y-97790000D02*
X97850000Y-97850000D01*
%TO.C,J3*%
X102810000Y-73085000D02*
X105470000Y-73085000D01*
X102810000Y-73025000D02*
X105470000Y-73025000D01*
X102810000Y-73025000D02*
X102810000Y-73085000D01*
X102810000Y-70425000D02*
X104140000Y-70425000D01*
X105470000Y-73025000D02*
X105470000Y-73085000D01*
X102810000Y-71755000D02*
X102810000Y-70425000D01*
%TO.C,J5*%
X135210000Y-73085000D02*
X135210000Y-71755000D01*
X137810000Y-73085000D02*
X137810000Y-70425000D01*
X137810000Y-70425000D02*
X142950000Y-70425000D01*
X137810000Y-73085000D02*
X142950000Y-73085000D01*
X142950000Y-73085000D02*
X142950000Y-70425000D01*
X136540000Y-73085000D02*
X135210000Y-73085000D01*
%TO.C,R1*%
X123920000Y-76935000D02*
X123920000Y-76605000D01*
X123920000Y-74195000D02*
X123920000Y-74525000D01*
X117380000Y-74195000D02*
X123920000Y-74195000D01*
X117380000Y-74525000D02*
X117380000Y-74195000D01*
X117380000Y-76935000D02*
X123920000Y-76935000D01*
X117380000Y-76605000D02*
X117380000Y-76935000D01*
%TO.C,J1*%
X88210000Y-95190000D02*
X88210000Y-97850000D01*
X90810000Y-95190000D02*
X88210000Y-95190000D01*
X90810000Y-95190000D02*
X90810000Y-97850000D01*
X93410000Y-95190000D02*
X93410000Y-96520000D01*
X90810000Y-97850000D02*
X88210000Y-97850000D01*
X92080000Y-95190000D02*
X93410000Y-95190000D01*
%TO.C,U3*%
X143740000Y-94120000D02*
X127740000Y-94120000D01*
X127740000Y-73520000D02*
X143740000Y-73520000D01*
X140740000Y-94120000D02*
X140740000Y-73520000D01*
X127740000Y-94120000D02*
X127740000Y-73520000D01*
X143740000Y-73520000D02*
X143740000Y-94120000D01*
%TO.C,R2*%
X123920000Y-76735000D02*
X117380000Y-76735000D01*
X123920000Y-79145000D02*
X123920000Y-79475000D01*
X117380000Y-76735000D02*
X117380000Y-77065000D01*
X117380000Y-79475000D02*
X117380000Y-79145000D01*
X123920000Y-79475000D02*
X117380000Y-79475000D01*
X123920000Y-77065000D02*
X123920000Y-76735000D01*
%TO.C,J12*%
X100325000Y-70425000D02*
X102925000Y-70425000D01*
X97725000Y-73085000D02*
X97725000Y-71755000D01*
X100325000Y-73085000D02*
X100325000Y-70425000D01*
X102925000Y-73085000D02*
X102925000Y-70425000D01*
X100325000Y-73085000D02*
X102925000Y-73085000D01*
X99055000Y-73085000D02*
X97725000Y-73085000D01*
%TO.C,U1*%
X125790000Y-85625000D02*
X107890000Y-85625000D01*
X125790000Y-87275000D02*
X125790000Y-85625000D01*
X125790000Y-90925000D02*
X125790000Y-89275000D01*
X107890000Y-85625000D02*
X107890000Y-90925000D01*
X107890000Y-90925000D02*
X125790000Y-90925000D01*
X125790000Y-87275000D02*
G75*
G03*
X125790000Y-89275000I0J-1000000D01*
G01*
%TO.C,R3*%
X117380000Y-79605000D02*
X117380000Y-79275000D01*
X123920000Y-79275000D02*
X123920000Y-79605000D01*
X117380000Y-82015000D02*
X123920000Y-82015000D01*
X117380000Y-81685000D02*
X117380000Y-82015000D01*
X123920000Y-82015000D02*
X123920000Y-81685000D01*
X117380000Y-79275000D02*
X123920000Y-79275000D01*
%TO.C,U2*%
X105005000Y-93175000D02*
X105005000Y-73195000D01*
X98078333Y-73555000D02*
X91151667Y-73555000D01*
X84225000Y-73195000D02*
X84225000Y-93175000D01*
X84225000Y-93175000D02*
X105005000Y-93175000D01*
X91151667Y-73555000D02*
X91151667Y-73195000D01*
X98078333Y-73195000D02*
X98078333Y-73555000D01*
X105005000Y-73195000D02*
X98078333Y-73195000D01*
X91151667Y-73195000D02*
X84225000Y-73195000D01*
%TO.C,J7*%
X105470000Y-97790000D02*
X105470000Y-97850000D01*
X102810000Y-95190000D02*
X104140000Y-95190000D01*
X102810000Y-97790000D02*
X102810000Y-97850000D01*
X102810000Y-97850000D02*
X105470000Y-97850000D01*
X102810000Y-96520000D02*
X102810000Y-95190000D01*
X102810000Y-97790000D02*
X105470000Y-97790000D01*
%TO.C,J6*%
X86990000Y-73085000D02*
X89590000Y-73085000D01*
X85720000Y-73085000D02*
X84390000Y-73085000D01*
X86990000Y-70425000D02*
X89590000Y-70425000D01*
X86990000Y-73085000D02*
X86990000Y-70425000D01*
X89590000Y-73085000D02*
X89590000Y-70425000D01*
X84390000Y-73085000D02*
X84390000Y-71755000D01*
%TO.C,Q1*%
X112340000Y-81810000D02*
X112340000Y-78210000D01*
X107889999Y-80010000D02*
G75*
G03*
X112328478Y-81848478I2600001J0D01*
G01*
X112328478Y-78171522D02*
G75*
G03*
X107890000Y-80010000I-1838478J-1838478D01*
G01*
%TD*%
M02*
